<svg width="244" height="27" viewBox="0 0 244 27" fill="none" xmlns="http://www.w3.org/2000/svg">
<path d="M4.368 24.656C4.368 25.68 3.73867 26.192 2.48 26.192C1.22133 26.192 0.592 25.68 0.592 24.656V2.512C0.592 2.02133 0.730667 1.584 1.008 1.2C1.28533 0.794666 1.81867 0.591999 2.608 0.591999H13.488C14.256 0.591999 14.6613 1.12533 14.704 2.192C14.7467 3.28 14.3413 3.824 13.488 3.824H4.368V24.656ZM12.56 12.784C12.56 13.1467 12.4853 13.4987 12.336 13.84C12.208 14.16 12.016 14.4373 11.76 14.672C11.5253 14.9067 11.248 15.0987 10.928 15.248C10.608 15.376 10.256 15.44 9.872 15.44C9.14667 15.44 8.528 15.184 8.016 14.672C7.504 14.16 7.248 13.5307 7.248 12.784C7.248 12.0373 7.504 11.408 8.016 10.896C8.528 10.384 9.14667 10.128 9.872 10.128C10.256 10.128 10.608 10.2027 10.928 10.352C11.248 10.48 11.5253 10.672 11.76 10.928C12.016 11.1627 12.208 11.44 12.336 11.76C12.4853 12.08 12.56 12.4213 12.56 12.784ZM20.201 26.032C19.4117 26.032 18.8783 25.8293 18.601 25.424C18.3237 25.0187 18.185 24.5707 18.185 24.08V1.968C18.185 0.943999 18.8037 0.431999 20.041 0.431999C21.321 0.431999 21.961 0.943999 21.961 1.968V22.8H32.649C33.417 22.8 33.801 23.3227 33.801 24.368C33.8437 25.4773 33.4597 26.032 32.649 26.032H20.201ZM48.8435 0.591999C49.3982 0.591999 49.9742 0.709332 50.5715 0.943998C51.1688 1.17867 51.7448 1.47733 52.2995 1.84H52.2675C52.8222 2.24533 53.2488 2.77866 53.5475 3.44C53.8462 4.08 53.9955 4.82667 53.9955 5.68V20.88C53.9955 22.608 53.4195 23.8987 52.2675 24.752C51.7128 25.1573 51.1368 25.4773 50.5395 25.712C49.9635 25.9253 49.3982 26.032 48.8435 26.032H41.8675C41.3128 26.032 40.7368 25.9253 40.1395 25.712C39.5635 25.4773 38.9982 25.1573 38.4435 24.752C37.8888 24.3253 37.4622 23.8027 37.1635 23.184C36.8648 22.544 36.7155 21.776 36.7155 20.88V5.68C36.7155 4.82667 36.8648 4.08 37.1635 3.44C37.4622 2.77866 37.8888 2.24533 38.4435 1.84H38.4115C38.9662 1.47733 39.5422 1.17867 40.1395 0.943998C40.7368 0.709332 41.3128 0.591999 41.8675 0.591999H48.8435ZM48.0435 22.8C48.8328 22.8 49.3875 22.576 49.7075 22.128C50.0275 21.68 50.1875 21.1787 50.1875 20.624V5.968C50.1875 5.43467 50.0275 4.944 49.7075 4.496C49.3875 4.048 48.8328 3.824 48.0435 3.824H42.6675C41.8782 3.824 41.3235 4.048 41.0035 4.496C40.6835 4.944 40.5235 5.43467 40.5235 5.968V20.624C40.5235 21.1787 40.6835 21.68 41.0035 22.128C41.3235 22.576 41.8782 22.8 42.6675 22.8H48.0435ZM81.6253 1.648L81.5933 1.68C81.7213 1.21066 81.9666 0.869331 82.3293 0.655998C82.7133 0.442665 83.2146 0.389332 83.8333 0.495998C84.4519 0.602665 84.8893 0.794665 85.1453 1.072C85.4226 1.34933 85.4866 1.73333 85.3373 2.224L79.5773 25.168V25.136C79.4706 25.4987 79.2253 25.776 78.8413 25.968C78.4786 26.16 78.0946 26.256 77.6893 26.256C77.2199 26.256 76.7719 26.1813 76.3453 26.032C75.9399 25.904 75.6839 25.6267 75.5773 25.2L75.6093 25.232L71.6733 9.616H70.8093L66.9053 25.2C66.7986 25.5627 66.5319 25.8293 66.1053 26C65.6786 26.1707 65.2413 26.256 64.7933 26.256C64.2386 26.256 63.7906 26.1707 63.4493 26C63.1293 25.8507 62.9159 25.5733 62.8093 25.168L62.8413 25.2L57.0813 2.224C56.9746 1.79733 57.0706 1.43467 57.3693 1.136C57.6679 0.815999 58.0946 0.602665 58.6493 0.495998C59.8439 0.303998 60.5693 0.698665 60.8253 1.68L60.7933 1.648L62.2333 7.44C62.4253 8.208 62.6173 8.99733 62.8093 9.808C63.0013 10.5973 63.2146 11.4507 63.4493 12.368C63.6839 13.264 63.9399 14.2453 64.2173 15.312C64.4946 16.3787 64.8039 17.5733 65.1453 18.896L69.2413 1.616C69.3479 1.14667 69.5933 0.837332 69.9773 0.688C70.3613 0.538666 70.7879 0.463999 71.2573 0.463999C71.6839 0.463999 72.0999 0.549332 72.5053 0.719999C72.9106 0.869332 73.1666 1.18933 73.2733 1.68L77.4973 18.8L81.6253 1.648ZM90.2955 26.032C89.5062 26.032 88.9728 25.8293 88.6955 25.424C88.4182 25.0187 88.2795 24.5707 88.2795 24.08V2.512C88.2795 2.02133 88.4182 1.584 88.6955 1.2C88.9728 0.794666 89.5062 0.591999 90.2955 0.591999H101.432C102.221 0.591999 102.637 1.12533 102.68 2.192C102.722 3.28 102.306 3.824 101.432 3.824H92.0555V22.8H102.008C102.797 22.8 103.202 23.3227 103.224 24.368C103.266 25.4773 102.861 26.032 102.008 26.032H90.2955ZM100.248 12.784C100.248 13.5307 99.9808 14.16 99.4475 14.672C98.9355 15.184 98.3062 15.44 97.5595 15.44C96.8342 15.44 96.2155 15.184 95.7035 14.672C95.1915 14.16 94.9355 13.5307 94.9355 12.784C94.9355 12.0373 95.1915 11.408 95.7035 10.896C96.2155 10.384 96.8342 10.128 97.5595 10.128C98.3062 10.128 98.9355 10.384 99.4475 10.896C99.9808 11.408 100.248 12.0373 100.248 12.784ZM115.741 15.472H113.277C112.914 15.472 112.626 15.3333 112.413 15.056C112.221 14.7573 112.125 14.3627 112.125 13.872C112.125 12.784 112.573 12.24 113.469 12.24H117.213C118.002 12.24 118.557 12.016 118.877 11.568C119.197 11.12 119.357 10.6293 119.357 10.096V5.968C119.357 5.43467 119.197 4.944 118.877 4.496C118.557 4.048 118.002 3.824 117.213 3.824H110.461V24.688C110.461 25.712 109.832 26.224 108.573 26.224C107.314 26.224 106.685 25.712 106.685 24.688V2.512C106.685 1.744 106.877 1.232 107.261 0.975998C107.666 0.719999 108.146 0.591999 108.701 0.591999H118.013C118.568 0.591999 119.144 0.709332 119.741 0.943998C120.338 1.17867 120.914 1.47733 121.469 1.84H121.437C121.992 2.24533 122.418 2.77866 122.717 3.44C123.016 4.08 123.165 4.82667 123.165 5.68V10.352C123.165 12.08 122.589 13.3707 121.437 14.224C121.202 14.3947 120.946 14.5547 120.669 14.704C120.413 14.8533 120.146 15.0027 119.869 15.152L124.989 23.6C125.053 23.7067 125.117 23.8453 125.181 24.016C125.245 24.1867 125.277 24.3253 125.277 24.432C125.277 24.944 124.914 25.4347 124.189 25.904V25.872C123.698 26.1707 123.282 26.32 122.941 26.32C122.45 26.32 122.056 26.0747 121.757 25.584L121.789 25.616L115.741 15.472ZM140.376 11.376C140.93 11.376 141.506 11.4933 142.104 11.728C142.701 11.9627 143.277 12.272 143.832 12.656H143.8C144.354 13.04 144.781 13.5627 145.08 14.224C145.378 14.8853 145.528 15.6427 145.528 16.496V20.88C145.528 22.608 144.952 23.8987 143.8 24.752C143.245 25.1573 142.669 25.4773 142.072 25.712C141.496 25.9253 140.93 26.032 140.376 26.032H133.4C132.845 26.032 132.269 25.9253 131.672 25.712C131.096 25.4773 130.53 25.1573 129.976 24.752C128.824 23.8987 128.248 22.608 128.248 20.88V18.768C128.248 17.7653 128.877 17.264 130.136 17.264C131.416 17.264 132.056 17.7653 132.056 18.768V20.624C132.056 21.1787 132.216 21.68 132.536 22.128C132.856 22.576 133.41 22.8 134.2 22.8H139.576C140.365 22.8 140.92 22.576 141.24 22.128C141.56 21.68 141.72 21.1787 141.72 20.624V16.752C141.72 16.2187 141.56 15.728 141.24 15.28C140.92 14.8107 140.365 14.576 139.576 14.576H133.4C132.29 14.576 131.149 14.1707 129.976 13.36C128.824 12.464 128.248 11.1733 128.248 9.488V5.68C128.248 4.82667 128.397 4.08 128.696 3.44C128.994 2.77866 129.421 2.24533 129.976 1.84H129.944C130.498 1.47733 131.074 1.17867 131.672 0.943998C132.269 0.709332 132.845 0.591999 133.4 0.591999H140.376C140.93 0.591999 141.506 0.709332 142.104 0.943998C142.701 1.17867 143.277 1.47733 143.832 1.84H143.8C144.354 2.24533 144.781 2.77866 145.08 3.44C145.378 4.08 145.528 4.82667 145.528 5.68V7.568C145.528 8.57067 144.888 9.072 143.608 9.072C142.349 9.072 141.72 8.57067 141.72 7.568V5.968C141.72 5.43467 141.56 4.944 141.24 4.496C140.92 4.048 140.365 3.824 139.576 3.824H134.2C133.41 3.824 132.856 4.048 132.536 4.496C132.216 4.944 132.056 5.43467 132.056 5.968V9.232C132.056 9.78667 132.216 10.288 132.536 10.736C132.856 11.1627 133.41 11.376 134.2 11.376H140.376ZM172.282 11.376C172.836 11.376 173.412 11.4933 174.01 11.728C174.607 11.9627 175.183 12.272 175.738 12.656H175.706C176.26 13.04 176.687 13.5627 176.986 14.224C177.284 14.8853 177.434 15.6427 177.434 16.496V20.88C177.434 22.608 176.858 23.8987 175.706 24.752C175.151 25.1573 174.575 25.4773 173.978 25.712C173.402 25.9253 172.836 26.032 172.282 26.032H165.306C164.751 26.032 164.175 25.9253 163.578 25.712C163.002 25.4773 162.436 25.1573 161.882 24.752C160.73 23.8987 160.154 22.608 160.154 20.88V18.768C160.154 17.7653 160.783 17.264 162.042 17.264C163.322 17.264 163.962 17.7653 163.962 18.768V20.624C163.962 21.1787 164.122 21.68 164.442 22.128C164.762 22.576 165.316 22.8 166.106 22.8H171.482C172.271 22.8 172.826 22.576 173.146 22.128C173.466 21.68 173.626 21.1787 173.626 20.624V16.752C173.626 16.2187 173.466 15.728 173.146 15.28C172.826 14.8107 172.271 14.576 171.482 14.576H165.306C164.196 14.576 163.055 14.1707 161.882 13.36C160.73 12.464 160.154 11.1733 160.154 9.488V5.68C160.154 4.82667 160.303 4.08 160.602 3.44C160.9 2.77866 161.327 2.24533 161.882 1.84H161.85C162.404 1.47733 162.98 1.17867 163.578 0.943998C164.175 0.709332 164.751 0.591999 165.306 0.591999H172.282C172.836 0.591999 173.412 0.709332 174.01 0.943998C174.607 1.17867 175.183 1.47733 175.738 1.84H175.706C176.26 2.24533 176.687 2.77866 176.986 3.44C177.284 4.08 177.434 4.82667 177.434 5.68V7.568C177.434 8.57067 176.794 9.072 175.514 9.072C174.255 9.072 173.626 8.57067 173.626 7.568V5.968C173.626 5.43467 173.466 4.944 173.146 4.496C172.826 4.048 172.271 3.824 171.482 3.824H166.106C165.316 3.824 164.762 4.048 164.442 4.496C164.122 4.944 163.962 5.43467 163.962 5.968V9.232C163.962 9.78667 164.122 10.288 164.442 10.736C164.762 11.1627 165.316 11.376 166.106 11.376H172.282ZM196.002 1.968C196.002 0.943999 196.632 0.431999 197.89 0.431999C199.17 0.431999 199.81 0.943999 199.81 1.968V24.656C199.81 25.68 199.17 26.192 197.89 26.192C196.632 26.192 196.002 25.68 196.002 24.656V1.968ZM186.274 24.656C186.274 25.68 185.634 26.192 184.354 26.192C183.096 26.192 182.466 25.68 182.466 24.656V1.968C182.466 0.943999 183.096 0.431999 184.354 0.431999C185.634 0.431999 186.274 0.943999 186.274 1.968V24.656ZM193.762 12.784C193.762 13.5307 193.506 14.16 192.994 14.672C192.482 15.184 191.853 15.44 191.106 15.44C190.381 15.44 189.762 15.184 189.25 14.672C188.738 14.16 188.482 13.5307 188.482 12.784C188.482 12.0373 188.738 11.408 189.25 10.896C189.762 10.384 190.381 10.128 191.106 10.128C191.853 10.128 192.482 10.384 192.994 10.896C193.506 11.408 193.762 12.0373 193.762 12.784ZM216.594 0.591999C217.148 0.591999 217.724 0.709332 218.322 0.943998C218.919 1.17867 219.495 1.47733 220.05 1.84H220.017C220.572 2.24533 220.999 2.77866 221.298 3.44C221.596 4.08 221.746 4.82667 221.746 5.68V20.88C221.746 22.608 221.17 23.8987 220.017 24.752C219.463 25.1573 218.887 25.4773 218.29 25.712C217.714 25.9253 217.148 26.032 216.594 26.032H209.618C209.063 26.032 208.487 25.9253 207.89 25.712C207.314 25.4773 206.748 25.1573 206.194 24.752C205.639 24.3253 205.212 23.8027 204.914 23.184C204.615 22.544 204.466 21.776 204.466 20.88V5.68C204.466 4.82667 204.615 4.08 204.914 3.44C205.212 2.77866 205.639 2.24533 206.194 1.84H206.161C206.716 1.47733 207.292 1.17867 207.89 0.943998C208.487 0.709332 209.063 0.591999 209.618 0.591999H216.594ZM215.794 22.8C216.583 22.8 217.138 22.576 217.458 22.128C217.778 21.68 217.938 21.1787 217.938 20.624V5.968C217.938 5.43467 217.778 4.944 217.458 4.496C217.138 4.048 216.583 3.824 215.794 3.824H210.418C209.628 3.824 209.074 4.048 208.754 4.496C208.434 4.944 208.274 5.43467 208.274 5.968V20.624C208.274 21.1787 208.434 21.68 208.754 22.128C209.074 22.576 209.628 22.8 210.418 22.8H215.794ZM233.535 16.592C233.173 16.592 232.885 16.4533 232.671 16.176C232.479 15.8773 232.383 15.4827 232.383 14.992C232.383 13.904 232.831 13.36 233.727 13.36H237.119C237.909 13.36 238.463 13.136 238.783 12.688C239.125 12.24 239.295 11.7493 239.295 11.216V5.968C239.295 5.43467 239.125 4.944 238.783 4.496C238.463 4.048 237.909 3.824 237.119 3.824H230.399V24.72C230.399 25.744 229.759 26.256 228.479 26.256C227.242 26.256 226.623 25.744 226.623 24.72V2.512C226.623 1.744 226.815 1.232 227.199 0.975998C227.583 0.719999 228.053 0.591999 228.607 0.591999H237.951C238.485 0.591999 239.05 0.709332 239.647 0.943998C240.245 1.17867 240.821 1.47733 241.375 1.84H241.343C241.898 2.24533 242.325 2.77866 242.623 3.44C242.922 4.08 243.071 4.82667 243.071 5.68V11.472C243.071 13.2 242.495 14.4907 241.343 15.344C240.789 15.7493 240.223 16.0587 239.647 16.272C239.071 16.4853 238.506 16.592 237.951 16.592H233.535Z" fill="url(#paint0_linear_5_771)"/>
<defs>
<linearGradient id="paint0_linear_5_771" x1="-2" y1="15" x2="246" y2="15" gradientUnits="userSpaceOnUse">
<stop/>
<stop offset="1" stop-color="#424242"/>
</linearGradient>
</defs>
</svg>
